<?xml version="1.0" encoding="UTF-8" standalone="no"?>
<!-- Created with Inkscape (http://www.inkscape.org/) -->

<svg
   width="564.93445mm"
   height="74.689491mm"
   viewBox="0 0 2135.1854 282.29099"
   version="1.1"
   id="svg1"
   xml:space="preserve"
   inkscape:version="1.3.2 (091e20e, 2023-11-25, custom)"
   sodipodi:docname="logo.mz.svg"
   xmlns:inkscape="http://www.inkscape.org/namespaces/inkscape"
   xmlns:sodipodi="http://sodipodi.sourceforge.net/DTD/sodipodi-0.dtd"
   xmlns="http://www.w3.org/2000/svg"
   xmlns:svg="http://www.w3.org/2000/svg"><sodipodi:namedview
     id="namedview1"
     pagecolor="#ffffff"
     bordercolor="#000000"
     borderopacity="0.25"
     inkscape:showpageshadow="2"
     inkscape:pageopacity="0.0"
     inkscape:pagecheckerboard="0"
     inkscape:deskcolor="#d1d1d1"
     inkscape:document-units="mm"
     showguides="true"
     inkscape:zoom="0.51213161"
     inkscape:cx="376.85625"
     inkscape:cy="-314.37232"
     inkscape:window-width="958"
     inkscape:window-height="1000"
     inkscape:window-x="-7"
     inkscape:window-y="0"
     inkscape:window-maximized="0"
     inkscape:current-layer="layer1"
     showgrid="false"
     inkscape:export-bgcolor="#ffffff00"><sodipodi:guide
       position="-1186.9177,-395.04303"
       orientation="1,0"
       id="guide49"
       inkscape:locked="false" /><sodipodi:guide
       position="-690.95145,-250.54883"
       orientation="1,0"
       id="guide50"
       inkscape:locked="false" /><sodipodi:guide
       position="-790.53523,-246.64363"
       orientation="0,-1"
       id="guide51"
       inkscape:locked="false" /><sodipodi:guide
       position="-911.26224,-527.61903"
       orientation="0,-1"
       id="guide52"
       inkscape:locked="false" /><sodipodi:guide
       position="-182.03,55.041968"
       orientation="1,0"
       id="guide103"
       inkscape:locked="false" /><sodipodi:guide
       position="578.0095,51.619468"
       orientation="1,0"
       id="guide104"
       inkscape:locked="false" /><sodipodi:guide
       position="221.958,1122.5057"
       orientation="0,-1"
       id="guide121"
       inkscape:locked="false" /><sodipodi:guide
       position="336.1283,839.01487"
       orientation="0,-1"
       id="guide122"
       inkscape:locked="false" /></sodipodi:namedview><defs
     id="defs1" /><g
     inkscape:label="Camada 1"
     inkscape:groupmode="layer"
     id="layer1"
     transform="translate(-1304.0751,3491.6647)"><path
       style="opacity:1;fill:none;stroke:#000000;stroke-width:3.77953;stroke-linejoin:round;stroke-opacity:1"
       d="m 1492.5968,-3428.3267 c 0,0 -26.6599,82.5482 -54.7971,136.6033 -12.3361,23.6993 -37.6534,38.5827 -53.0853,42.0617 -54.0529,12.1857 -79.6751,-15.0408 -78.7243,-45.4288 0.7934,-25.3552 21.8695,-52.7017 43.596,-63.1644 47.7654,-23.0022 45.9424,5.3136 44.1828,11.0457 -1.7596,5.732 -8.2843,11.0457 -8.2843,11.0457 -3.6089,-31.6625 -51.9854,11.961 -20.7107,30.0305 20.3371,11.7501 48.0535,-31.7176 55.5737,-41.0762 7.5203,-9.3586 68.0001,-123.919 68.0001,-123.919 -54.815,4.9641 -64.5478,34.55 -66.01,40.8761 -1.3685,5.9204 -0.4356,15.4062 5.2884,17.4456 7.498,2.6714 19.8781,-15.785 19.8163,-13.3235 -0.4232,16.8547 -19.447,47.3604 -41.2471,43.3674 -36.4635,-6.6788 -24.0356,-56.8741 -6.8443,-75.3081 17.6996,-18.9789 45.7003,-30.178 71.7378,-31.0068 17.7151,-0.5639 44.5987,-1.4407 50.0509,17.9493 7.5628,26.8963 -6.9036,83.5331 -6.9036,83.5331 0,0 53.7761,-77.0169 94.6207,-95.3876 15.9112,-7.1564 45.6591,-9.4853 52.2577,-2.9239 6.5987,6.5614 -1.2132,15.2962 -1.2132,15.2962 0,0 -3.3486,-5.6584 -12.1567,-5.6704 -17.5358,-0.024 -29.6802,23.9717 -38.9667,40.1436 -24.7319,43.0693 -40.0288,143.5178 -40.0288,143.5178 -19.0824,9.4621 -37.9853,19.2474 -53.8748,34.4569 1.1395,-25.7195 22.3965,-123.2836 58.2682,-167.5804 -63.155,93.0876 -68.3357,106.2052 -71.5263,112.3045 -18.3263,35.034 -25.6213,17.4569 -30.1127,-8.7456 -6.9802,-40.7216 21.0933,-106.1427 21.0933,-106.1427 z"
       id="path104"
       sodipodi:nodetypes="csssszczzcaasssascazcsacccssc"
       inkscape:export-filename="..\mz\mz logo preto c nome horiz.svg"
       inkscape:export-xdpi="96"
       inkscape:export-ydpi="96" /><path
       style="opacity:1;fill:none;stroke:#000000;stroke-width:3.77953;stroke-linejoin:round;stroke-opacity:1"
       d="m 1388.9031,-3364.6668 c 6.1934,4.9836 14.8617,8.8387 20.4632,17.374 0,0 -2.66,20.737 -11.9598,23.9196 -4.5373,1.5527 -11.6836,-11.3634 -11.6836,-11.3634 0,0 -9.3603,4.1736 -14.6769,11.8515 -5.3165,7.678 1.4645,18.0618 1.4645,18.0618"
       id="path105"
       sodipodi:nodetypes="ccsczc" /><path
       style="opacity:1;fill:none;stroke:#000000;stroke-width:3.77953;stroke-linejoin:round;stroke-opacity:1"
       d="m 1456.2252,-3410.7726 18.5717,-42.1745 c -19.9165,7.0113 -33.8289,21.3012 -38.6426,37.051"
       id="path106"
       sodipodi:nodetypes="ccc" /><path
       style="opacity:1;fill:none;stroke:#000000;stroke-width:3.77953;stroke-linejoin:round;stroke-opacity:1"
       d="m 1447.5645,-3426.252 11.2275,6.7121"
       id="path107"
       sodipodi:nodetypes="cc" /><path
       style="opacity:1;fill:none;stroke:#000000;stroke-width:3.77953;stroke-linejoin:round;stroke-opacity:1"
       d="m 1386.1345,-3396.4919 c 9.8045,14.873 22.541,36.3692 50.0803,22.1064"
       id="path108"
       sodipodi:nodetypes="cc" /><path
       style="opacity:1;fill:none;stroke:#000000;stroke-width:3.77953;stroke-linejoin:round;stroke-opacity:1"
       d="m 1309.0503,-3276.2662 c 0,0 20.3577,58.5273 80.0575,43.2018 65.9398,-16.9274 82.1802,-91.2851 82.1802,-91.2851"
       id="path109"
       sodipodi:nodetypes="csc" /><path
       style="opacity:1;fill:none;stroke:#000000;stroke-width:3.77953;stroke-linejoin:round;stroke-opacity:1"
       d="m 1478.9285,-3297.501 c 0,0 10.4741,20.278 19.5609,19.2403 18.1348,-2.0708 29.3767,-46.2109 29.3767,-46.2109"
       id="path110"
       sodipodi:nodetypes="cac" /><path
       style="opacity:1;fill:none;stroke:#000000;stroke-width:3.77953;stroke-linejoin:round;stroke-opacity:1"
       d="m 1660.9369,-3486.316 c 0,0 12.4399,8.9877 13.5507,14.8758 1.1109,5.8882 -5.7842,12.5658 -5.7842,12.5658 l -8.6887,-12.3881"
       id="path111"
       sodipodi:nodetypes="cccc" /><path
       style="opacity:1;fill:none;stroke:#000000;stroke-width:3.77953;stroke-linejoin:round;stroke-opacity:1"
       d="m 1589.0076,-3314.5864 c 7.4983,-32.5852 14.3821,-69.412 28.5571,-102.0246 m 17.9397,-27.9469 c 9.8654,-10.0408 20.9497,-22.663 32.0963,-14.7667 m -152.9758,200.9371 13.1191,15.56 c 5.8318,-8.0424 12.4149,-15.0327 21.4789,-18.5499 l 4.0708,-1.4468"
       id="path112"
       sodipodi:nodetypes="cccccccc" /><path
       style="opacity:1;fill:none;stroke:#000000;stroke-width:3.77953;stroke-linejoin:round;stroke-opacity:1"
       d="m 1515.3231,-3480.8446 c 8.2049,4.1368 12.0722,10.3861 18.5807,20.505 5.2171,8.111 4.3352,26.2115 2.1623,43.5719"
       id="path113"
       sodipodi:nodetypes="csc" /><path
       style="opacity:1;fill:none;stroke:#000000;stroke-width:3.77953;stroke-linejoin:round;stroke-opacity:1"
       d="m 1630.2533,-3304.1701 c 0,0 105.4206,-85.9197 128.594,-118.3767 23.1733,-32.4571 28.5858,-55.7519 26.7006,-59.6781 -1.8852,-3.9262 -11.8759,9.9854 -13.826,9.6371 -16.3199,9.7421 -43.4676,11.9182 -72.0963,11.6309 -21.4353,-0.5643 -61.7006,6.3513 -77.6709,28.89 -7.3058,10.3106 -5.7744,39.3748 -0.6904,37.9036 3.2077,-0.9283 2.6241,-20.7133 33.7554,-23.7265 23.2261,-2.248 46.8405,-4.7575 69.4477,-8.8074 -66.6395,62.6249 -162.5161,103.0361 -182.4482,198.8015 0,0 28.5468,-23.1803 45.8026,-27.7552 27.3649,-7.255 60.7075,-1.2712 84.9011,2.249 41.8411,6.0881 63.2178,6.254 87.354,-10.3988 29.0584,-20.0487 30.2155,-63.2151 18.684,-70.3296 -12.2761,-7.574 8.8799,40.3052 -78.382,29.7304 -25.658,-5.6303 -48.0967,-3.2126 -70.1256,0.2298 z"
       id="path114"
       sodipodi:nodetypes="czzccassccassscc" /><path
       style="opacity:1;fill:none;stroke:#000000;stroke-width:3.77953;stroke-linejoin:round;stroke-opacity:1"
       d="m 1618.1715,-3397.5299 c 0,0 11.5044,21.2585 17.3295,16.5973 5.825,-4.6612 4.6806,-12.9415 22.4576,-19.6943 17.777,-6.7528 46.4157,-8.1811 46.4157,-8.1811"
       id="path115"
       sodipodi:nodetypes="czzc" /><path
       style="opacity:1;fill:none;stroke:#000000;stroke-width:3.77953;stroke-linejoin:round;stroke-opacity:1"
       d="m 1784.9755,-3482.727 13.9692,12.5799 c 5.4424,51.1439 -87.2882,117.5712 -132.7629,161.9715"
       id="path116"
       sodipodi:nodetypes="ccc" /><path
       style="opacity:1;fill:none;stroke:#000000;stroke-width:3.77953;stroke-linejoin:round;stroke-opacity:1"
       d="m 1541.9682,-3227.8825 15.2654,16.6191 c 0,0 13.0094,-20.5496 51.6355,-29.0511 38.6261,-8.5015 71.4993,5.5736 113.3902,6.9863 41.8909,1.4126 93.8463,-35.6177 72.0144,-89.3918 l -15.2549,-11.2886"
       id="path117"
       sodipodi:nodetypes="cczzcc" /><text
       xml:space="preserve"
       style="font-style:normal;font-variant:normal;font-weight:normal;font-stretch:normal;font-size:175.339px;line-height:0px;font-family:'Trajan Pro 3';-inkscape-font-specification:'Trajan Pro 3, ';letter-spacing:0px;fill:none;stroke:none;stroke-width:5.4362;stroke-linejoin:round;stroke-dasharray:none"
       x="2660.0542"
       y="-3288.5115"
       id="text121"><tspan
         sodipodi:role="line"
         id="tspan119"
         x="2660.0542"
         y="-3288.5115"
         style="font-size:175.339px;line-height:0px;text-align:center;text-anchor:middle;fill:#000000;fill-opacity:1;stroke:none;stroke-width:5.4362;stroke-dasharray:none;stroke-opacity:1">Matheus Zanete</tspan><tspan
         sodipodi:role="line"
         x="2660.0542"
         y="-3288.5115"
         style="font-size:175.339px;line-height:0px;text-align:center;text-anchor:middle;fill:#000000;fill-opacity:1;stroke:none;stroke-width:5.4362;stroke-dasharray:none;stroke-opacity:1"
         id="tspan120" /><tspan
         sodipodi:role="line"
         x="2660.0542"
         y="-3288.5115"
         style="font-size:175.339px;line-height:0px;text-align:center;text-anchor:middle;fill:#000000;fill-opacity:1;stroke:none;stroke-width:5.4362;stroke-dasharray:none;stroke-opacity:1"
         id="tspan121" /></text></g></svg>
